# AST/ASF file generated using VICON BodyLanguage
# -----------------------------------------------
:version 1.10
:name VICON
:units
  mass 1.0
  length 0.45
  angle deg
:documentation
   .ast/.asf automatically generated from VICON data using
   VICON BodyBuilder and BodyLanguage model FoxedUp or BRILLIANT.MOD
:root
   order TX TY TZ RX RY RZ
   axis XYZ
   position 0 0 0  
   orientation 0 0 0 
:bonedata
  begin
     id 1 
     name lhipjoint
     direction 0.589753 -0.68606 0.426044 
     length 2.54082 
     axis 0 0 0  XYZ
  end
  begin
     id 2 
     name lfemur
     direction 0.34202 -0.939693 0  
     length 7.04539  
     axis 0 0 20  XYZ
    dof rx ry rz
    limits (-160.0 20.0)
           (-70.0 70.0)
           (-60.0 70.0)
  end
  begin
     id 3 
     name ltibia
     direction 0.34202 -0.939693 0   
     length 7.83772   
     axis 0 0 20   XYZ
    dof rx
    limits (-10.0 170.0)
  end
  begin
     id 4 
     name lfoot
     direction 0.0596604 -0.163915 0.984669   
     length 2.39542   
     axis -90 7.62852e-016 20   XYZ
    dof rx rz
    limits (-45.0 90.0)
           (-70.0 20.0)
  end
  begin
     id 5 
     name ltoes
     direction 1.53514e-011 -4.21954e-011 1   
     length 1.2047   
     axis -90 7.62852e-016 20   XYZ
    dof rx
    limits (-90.0 20.0)
  end
  begin
     id 6 
     name rhipjoint
     direction -0.580585 -0.69168 0.429534   
     length 2.52018  
     axis 0 0 0  XYZ 
  end
  begin
     id 7 
     name rfemur
     direction -0.34202 -0.939693 0   
     length 7.0101   
     axis 0 0 -20   XYZ
    dof rx ry rz
    limits (-160.0 20.0)
           (-70.0 70.0)
           (-70.0 60.0)
  end
  begin
     id 8 
     name rtibia
     direction -0.34202 -0.939693 0   
     length 7.70628   
     axis 0 0 -20   XYZ
    dof rx
    limits (-10.0 170.0)
 end
 begin
     id 9 
     name rfoot
     direction -0.0696237 -0.19129 0.979061   
     length 2.52466  
     axis -90 -7.62852e-016 -20   XYZ
    dof rx rz
    limits (-45.0 90.0)
           (-20.0 70.0)
  end
  begin
     id 10 
     name rtoes
     direction -1.53519e-011 -4.21793e-011 1   
     length 1.266   
     axis -90 -7.62852e-016 -20   XYZ
    dof rx
    limits (-90.0 20.0)
  end
  begin
     id 11 
     name lowerback
     direction 0.00381965 0.995707 -0.0924856   
     length 2.20825   
     axis 0 0 0   XYZ
    dof rx ry rz
    limits (-20.0 45.0)
           (-30.0 30.0)
           (-30.0 30.0)
  end
  begin
     id 12 
     name upperback
     direction -0.0139043 0.999634 -0.0231929   
     length 2.21517   
     axis 0 0 0   XYZ
    dof rx ry rz
    limits (-20.0 45.0)
           (-30.0 30.0)
           (-30.0 30.0)
  end
  begin
     id 13 
     name thorax
     direction -0.0143933 0.999691 0.0202892   
     length 2.22911   
     axis 0 0 0   XYZ
    dof rx ry rz
    limits (-20.0 45.0)
           (-30.0 30.0)
           (-30.0 30.0)
  end
  begin
     id 14 
     name lowerneck
     direction -0.0251153 0.981819 0.188153   
     length 1.61782   
     axis 0 0 0   XYZ
    dof rx ry rz
    limits (-20.0 45.0)
           (-30.0 30.0)
           (-30.0 30.0)
  end
  begin
     id 15 
     name upperneck
     direction 0.0563891 0.969357 -0.239095   
     length 1.64526   
     axis 0 0 0   XYZ
    dof rx ry rz
    limits (-20.0 45.0)
           (-30.0 30.0)
           (-30.0 30.0)
  end
  begin
     id 16
     name head
     direction 0.0208328 0.99459 -0.101773  
     length 1.67436  
     axis 0 0 0   XYZ
    dof rx ry rz
    limits (-20.0 45.0)
           (-30.0 30.0)
           (-30.0 30.0)
  end
  begin
     id 17 
     name lclavicle
     direction 0.917689 0.397224 0.00772059  
     length 3.31102  
     axis 0 0 0   XYZ
    dof ry rz
    limits (-20.0 10.0)
           (0.0 20.0)
  end
  begin
     id 18 
     name lhumerus
     direction 1 -4.4896e-011 2.32308e-027   
     length 5.25537   
     axis 180 -30 -90   XYZ
    dof rx ry rz
    limits (-60.0 90.0)
           (-90.0 90.0)
           (-90.0 90.0)
  end
  begin
     id 19
     name lradius
     direction 1 -4.49005e-011 -2.04271e-027   
     length 3.38855   
     axis 180 -30 -90   XYZ
    dof rx
    limits (-10.0 170.0)
  end
  begin
     id 20
     name lwrist
     direction 1 -4.48892e-011 2.56952e-028   
     length 1.69428   
     axis -5.12785e-016 90 90   XYZ
    dof ry
    limits (-180.0 0.0)
 end
  begin
     id 21 
     name lhand
     direction 1 -4.48966e-011 5.13905e-028   
     length 0.614516   
     axis -3.27915e-016 90 90   XYZ
    dof rx rz
    limits (-90.0 90.0)
           (-45.0 45.0)
  end
  begin
     id 22 
     name lfingers
     direction 1 -4.48979e-011 1.02781e-027   
     length 0.495439   
     axis -6.5583e-016 90 90   XYZ
    dof rx
    limits (0.0 90.0)
  end
  begin
     id 23
     name lthumb
     direction 0.707107 -6.35001e-011 0.707107   
     length 0.711354   
     axis -90 45 2.85299e-015   XYZ
    dof rx rz
    limits (-45.0 45.0)
           (-45.0 45.0)
  end
  begin
     id 24 
     name rclavicle
     direction -0.938556 0.342765 -0.0403177   
     length 3.27019  
     axis 0 0 0   XYZ 
    dof ry rz
    limits (-10.0 20.0)
           (-20.0 0.0)
  end
  begin
     id 25 
     name rhumerus
     direction -1 -4.48966e-011 2.52291e-027  
     length 5.38183   
     axis 180 30 90   XYZ
    dof rx ry rz
    limits (-90.0 60.0)
           (-90.0 90.0)
           (-90.0 90.0)
  end
  begin
     id 26 
     name rradius
     direction -1 -4.4896e-011 1.5797e-027   
     length 3.16988   
     axis 180 30 90   XYZ
    dof rx
    limits (-10.0 170.0)
  end
  begin
     id 27 
     name rwrist
     direction -1 -4.48947e-011 2.56952e-028   
     length 1.58494   
     axis -5.12785e-016 -90 -90   XYZ
    dof ry
    limits (-180.0 0.0)
  end
  begin
     id 28
     name rhand
     direction -1 -4.49098e-011 5.13905e-028   
     length 0.637679   
     axis -3.27915e-016 -90 -90   XYZ
    dof rx rz
    limits (-90.0 90.0)
           (-45.0 45.0)
  end
  begin
     id 29
     name rfingers
     direction -1 -4.49026e-011 1.02781e-027   
     length 0.514113   
     axis -6.5583e-016 -90 -90   XYZ
    dof rx
    limits (0.0 90.0)
  end
  begin
     id 30
     name rthumb
     direction -0.707107 -6.3491e-011 0.707107   
     length 0.738167   
     axis -90 -45 -2.85299e-015   XYZ
    dof rx rz
    limits (-45.0 45.0)
           (-45.0 45.0)
  end
:hierarchy
  begin
    root lhipjoint rhipjoint lowerback
    lhipjoint lfemur
    lfemur ltibia
    ltibia lfoot
    lfoot ltoes
    rhipjoint rfemur
    rfemur rtibia
    rtibia rfoot
    rfoot rtoes
    lowerback upperback
    upperback thorax
    thorax lowerneck lclavicle rclavicle
    lowerneck upperneck
    upperneck head
    lclavicle lhumerus
    lhumerus lradius
    lradius lwrist
    lwrist lhand lthumb
    lhand lfingers
    rclavicle rhumerus
    rhumerus rradius
    rradius rwrist
    rwrist rhand rthumb
    rhand rfingers
  end

#!OML:ASF H:\Swim\Project 1\Capture day 1\Session 1\swimmer.ASF
:FULLY-SPECIFIED
:DEGREES
84
root 3.12914 17.4711 -31.5402 12.0649 4.60024 1.10647
lowerback 0.374869 -0.870242 4.10348
upperback 3.28877 -1.19374 -0.930505
thorax 3.07555 -0.468426 -3.28679
lowerneck -24.156 -5.04238 -8.60233
upperneck 23.1846 -5.64515 6.27116
head 12.0769 -2.46451 2.80642
rclavicle -4.62174e-015 4.77083e-015
rhumerus -15.4174 2.64765 -19.2981
rradius 29.014
rwrist -5.10553
rhand -8.21855 6.60335
rfingers 7.12502
rthumb 17.6985 -22.6112
lclavicle -4.62174e-015 4.77083e-015
lhumerus -25.2772 -2.73996 20.2425
lradius 34.3926
lwrist -11.9363
lhand -10.3777 1.73032
lfingers 7.12502
lthumb 15.6199 31.1197
rfemur -13.0694 24.4354 17.6281
rtibia 27.8762
rfoot -41.7152 -32.295
rtoes 16.4365
lfemur -28.5412 1.3529 -12.3605
ltibia 45.557
lfoot -12.6899 2.28044
ltoes -10.5531
85
root 3.14649 17.4715 -31.5083 12.1654 4.69254 1.17377
lowerback 0.474846 -0.858957 4.14612
upperback 3.28652 -1.17482 -0.930747
thorax 3.01784 -0.459197 -3.30878
lowerneck -24.1382 -5.03642 -8.61184
upperneck 23.0703 -5.5979 6.16635
head 12.0215 -2.45819 2.77487
rclavicle 3.47873e-016 1.15295e-014
rhumerus -15.5636 2.4427 -20.0333
rradius 29.3305
rwrist -4.76706
rhand -8.43067 6.77541
rfingers 7.12502
rthumb 17.4944 -22.4574
lclavicle 3.47873e-016 1.15295e-014
lhumerus -25.863 -3.46165 21.2019
lradius 35.3471
lwrist -11.6767
lhand -10.9773 1.79834
lfingers 7.12502
lthumb 15.0424 31.2319
rfemur -12.8985 24.6976 17.5518
rtibia 27.6938
rfoot -42.2233 -32.3089
rtoes 16.8246
lfemur -29.2191 1.65237 -12.4376
ltibia 46.2639
lfoot -12.7143 1.46192
ltoes -11.007
86
root 3.16517 17.4717 -31.4736 12.2686 4.77312 1.22161
lowerback 0.567568 -0.84745 4.20122
upperback 3.27235 -1.15575 -0.93358
thorax 2.9517 -0.449956 -3.3405
lowerneck -24.1189 -5.0233 -8.61205
upperneck 22.9633 -5.5448 6.06112
head 11.9682 -2.44847 2.74292
rclavicle 8.44835e-015 1.96797e-014
rhumerus -15.7081 2.25865 -20.8525
rradius 29.643
rwrist -4.45931
rhand -8.7127 6.88836
rfingers 7.12502
rthumb 17.223 -22.3684
lclavicle 8.44835e-015 1.96797e-014
lhumerus -26.5051 -4.23543 22.2063
lradius 36.308
lwrist -11.4767
lhand -11.6988 1.80494
lfingers 7.12502
lthumb 14.3473 31.2892
rfemur -12.71 24.9767 17.4949
rtibia 27.4891
rfoot -42.7301 -32.3266
rtoes 17.1912
lfemur -29.8651 1.94653 -12.4891
ltibia 46.8153
lfoot -12.8212 0.633499
ltoes -11.5323
87
root 3.18516 17.472 -31.4358 12.3768 4.84274 1.25223
lowerback 0.64073 -0.835409 4.26492
upperback 3.25208 -1.1367 -0.937817
thorax 2.89018 -0.440523 -3.37888
lowerneck -24.099 -5.00283 -8.60857
upperneck 22.8584 -5.48312 5.95572
head 11.9148 -2.43456 2.71198
rclavicle -6.01324e-015 1.98785e-015
rhumerus -15.8416 2.09078 -21.7597
rradius 29.9381
rwrist -4.18391
rhand -9.08782 6.94297
rfingers 7.12502
rthumb 16.8619 -22.345
lclavicle -6.01324e-015 1.98785e-015
lhumerus -27.1879 -5.01369 23.2589
lradius 37.258
lwrist -11.3617
lhand -12.5176 1.76427
lfingers 7.12502
lthumb 13.5581 31.3028
rfemur -12.5053 25.2707 17.4538
rtibia 27.259
rfoot -43.227 -32.3594
rtoes 17.5308
lfemur -30.4769 2.23774 -12.516
ltibia 47.1971
lfoot -12.979 -0.168477
ltoes -12.0084
88
root 3.20646 17.4723 -31.3951 12.4889 4.90594 1.2765
lowerback 0.697222 -0.820489 4.33223
upperback 3.22508 -1.1142 -0.950315
thorax 2.83126 -0.429271 -3.42807
lowerneck -24.0718 -4.97845 -8.59625
upperneck 22.7514 -5.41963 5.84845
head 11.8589 -2.41934 2.67932
rclavicle 3.8763e-015 7.45443e-015
rhumerus -16.003 1.97159 -22.7541
rradius 30.2385
rwrist -3.96866
rhand -9.56976 6.92699
rfingers 7.12502
rthumb 16.3979 -22.3999
lclavicle 3.8763e-015 7.45443e-015
lhumerus -27.8958 -5.80234 24.3639
lradius 38.2153
lwrist -11.2709
lhand -13.3573 1.76023
lfingers 7.12502
lthumb 12.7487 31.351
rfemur -12.2823 25.5719 17.4182
rtibia 27.0031
rfoot -43.7108 -32.4083
rtoes 17.8315
lfemur -31.0512 2.51595 -12.527
ltibia 47.4006
lfoot -13.1522 -0.895714
ltoes -12.3202
89
root 3.22907 17.4727 -31.3517 12.6024 4.96327 1.29617
lowerback 0.740028 -0.801033 4.3971
upperback 3.1943 -1.08602 -0.967575
thorax 2.77671 -0.415196 -3.48099
lowerneck -24.0421 -4.95193 -8.57522
upperneck 22.6407 -5.35351 5.72975
head 11.8006 -2.40362 2.64143
rclavicle 1.16289e-014 -8.15017e-015
rhumerus -16.1972 1.93183 -23.8312
rradius 30.5521
rwrist -3.84227
rhand -10.1575 6.85159
rfingers 7.12502
rthumb 15.8319 -22.5211
lclavicle 1.16289e-014 -8.15017e-015
lhumerus -28.6224 -6.58849 25.5289
lradius 39.1825
lwrist -11.1718
lhand -14.1905 1.79356
lfingers 7.12502
lthumb 11.9454 31.4327
rfemur -12.0385 25.879 17.3871
rtibia 26.7208
rfoot -44.1759 -32.4834
rtoes 18.0858
lfemur -31.5822 2.77716 -12.5214
ltibia 47.4273
lfoot -13.3242 -1.47126
ltoes -12.5258
